<?xml version="1.0" standalone="no"?>
<!DOCTYPE svg PUBLIC "-//W3C//DTD SVG 20010904//EN"
 "http://www.w3.org/TR/2001/REC-SVG-20010904/DTD/svg10.dtd">
<svg version="1.0" xmlns="http://www.w3.org/2000/svg"
 width="218.000000pt" height="218.000000pt" viewBox="0 0 218.000000 218.000000"
 preserveAspectRatio="xMidYMid meet">

<g transform="translate(0.000000,218.000000) scale(0.100000,-0.100000)"
fill="#868e96" stroke="none">
<path d="M1903 2108 c-5 -7 -17 -39 -27 -72 -13 -42 -30 -70 -61 -102 -29 -29
-57 -74 -85 -136 -23 -51 -48 -106 -56 -123 -7 -16 -25 -64 -40 -105 -30 -86
-265 -560 -326 -659 -28 -45 -42 -79 -43 -107 -3 -52 -93 -239 -173 -360 -79
-117 -198 -232 -286 -274 l-67 -31 -52 29 c-57 32 -134 119 -167 190 -12 24
-19 46 -17 48 2 2 52 -14 112 -37 142 -53 162 -56 214 -29 152 77 207 224 138
373 -58 126 -173 176 -381 165 -114 -6 -165 -28 -238 -101 -129 -128 -150
-286 -61 -460 77 -154 262 -246 494 -249 154 -1 284 48 384 147 82 80 213 292
260 420 11 28 29 59 41 71 11 11 29 45 39 75 10 30 56 157 103 284 46 126 110
304 142 395 48 140 133 352 230 578 22 51 23 53 4 67 -24 18 -68 19 -81 3z
m21 -35 c-10 -40 -40 -97 -60 -114 -16 -13 -17 -13 -2 11 9 14 23 49 33 78 17
53 41 74 29 25z m49 21 c12 -4 8 -20 -23 -87 -20 -45 -49 -113 -65 -152 -81
-207 -85 -215 -113 -215 -15 0 -39 10 -54 23 l-26 22 47 104 c37 80 54 107 77
119 65 32 103 85 130 180 4 14 6 14 27 6z m-236 -460 c34 -15 41 -23 37 -39
-10 -33 -20 -38 -58 -25 -44 14 -58 36 -43 67 6 13 13 22 16 20 3 -2 25 -12
48 -23z m-15 -205 c-9 -24 -36 -58 -63 -82 -49 -42 -159 -111 -159 -100 0 19
60 79 130 128 44 31 85 65 90 76 18 33 19 21 2 -22z m-151 -72 c-10 -9 -11 -8
-5 6 3 10 9 15 12 12 3 -3 0 -11 -7 -18z m-71 -151 c0 -2 -8 -10 -17 -17 -16
-13 -17 -12 -4 4 13 16 21 21 21 13z m85 -153 c-20 -49 -79 -89 -146 -98 -27
-4 -65 -18 -84 -31 l-35 -24 15 30 c25 48 107 101 176 114 20 3 47 17 60 29
13 13 25 22 27 21 2 -1 -4 -19 -13 -41z m-235 -168 c-23 -24 -23 -25 -5 -47
l19 -23 -24 22 -24 23 24 25 c13 14 26 25 28 25 3 0 -5 -11 -18 -25z m-773
-31 c-3 -3 -12 -4 -19 -1 -8 3 -5 6 6 6 11 1 17 -2 13 -5z m804 -68 c26 -11
53 -14 75 -10 l35 6 -14 -33 c-12 -30 -18 -34 -53 -37 -51 -4 -126 33 -138 69
-5 14 -6 39 -2 55 l7 28 25 -31 c13 -17 42 -38 65 -47z m-981 11 c0 -2 -19
-21 -42 -42 l-43 -40 40 43 c36 39 45 47 45 39z m510 -22 c13 -14 21 -25 18
-25 -2 0 -15 11 -28 25 -13 14 -21 25 -18 25 2 0 15 -11 28 -25z m-390 12 c0
-2 -12 -14 -27 -28 l-28 -24 24 28 c23 25 31 32 31 24z m160 -201 c0 -2 -8
-10 -17 -17 -16 -13 -17 -12 -4 4 13 16 21 21 21 13z m108 -21 c-3 -3 -9 2
-12 12 -6 14 -5 15 5 6 7 -7 10 -15 7 -18z m122 -88 c0 -2 -12 -14 -27 -28
l-28 -24 24 28 c23 25 31 32 31 24z m-239 -84 c13 -16 12 -17 -3 -4 -10 7 -18
15 -18 17 0 8 8 3 21 -13z m369 -66 c0 -1 -26 -27 -57 -57 l-58 -55 55 58 c50
53 60 62 60 54z m70 -1 c0 -2 -8 -10 -17 -17 -16 -13 -17 -12 -4 4 13 16 21
21 21 13z m0 -39 c0 -2 -15 -16 -32 -33 l-33 -29 29 33 c28 30 36 37 36 29z
m-679 -54 c13 -16 12 -17 -3 -4 -17 13 -22 21 -14 21 2 0 10 -8 17 -17z m109
-70 c0 -8 -9 0 -50 45 l-45 47 48 -45 c26 -24 47 -45 47 -47z m41 70 c13 -16
12 -17 -3 -4 -17 13 -22 21 -14 21 2 0 10 -8 17 -17z m439 13 c0 -2 -8 -10
-17 -17 -16 -13 -17 -12 -4 4 13 16 21 21 21 13z"/>
</g>
</svg>
